<svg xmlns="http://www.w3.org/2000/svg" version="1.1" xmlns:xlink="http://www.w3.org/1999/xlink" xmlns:svgjs="http://svgjs.com/svgjs" width="600" height="560" preserveAspectRatio="none" viewBox="0 0 600 560"><g mask="url(&quot;#SvgjsMask1011&quot;)" fill="none"><rect width="600" height="560" x="0" y="0" fill="#1e3266"></rect><path d="M640 560L0 560 L0 352.27Q28.79 331.06, 50 359.85Q71.88 351.73, 80 373.61Q85.43 349.04, 110 354.47Q106.48 320.95, 140 317.43Q140.03 287.46, 170 287.48Q188.56 276.04, 200 294.6Q243.62 308.22, 230 351.83Q262.02 333.85, 280 365.86Q300.01 355.88, 310 375.89Q310.09 345.98, 340 346.06Q330.48 306.54, 370 297.02Q379.1 276.12, 400 285.22Q437.25 272.48, 450 309.73Q478.5 308.24, 480 336.74Q510.56 337.3, 510 367.86Q488.9 316.76, 540 295.66Q592.4 298.07, 590 350.47Q621.86 332.33, 640 364.19z" fill="#182f5d"></path><path d="M610 560L0 560 L0 427.01Q-5.03 371.98, 50 366.94Q58.69 345.63, 80 354.32Q139.24 383.56, 110 442.8Q94.58 397.38, 140 381.96Q156.78 348.74, 190 365.52Q207.89 333.41, 240 351.3Q262.91 344.21, 270 367.12Q314.08 381.2, 300 425.28Q325.12 420.4, 330 445.52Q330.56 396.07, 380 396.63Q377.5 364.13, 410 361.63Q464.9 366.53, 460 421.43Q490.74 402.17, 510 432.91Q515.78 388.69, 560 394.47Q590.04 374.51, 610 404.55z" fill="#25467d"></path><path d="M610 560L0 560 L0 441.53Q35.67 427.19, 50 462.86Q77.54 460.4, 80 487.94Q109.32 487.26, 110 516.59Q112.48 469.07, 160 471.54Q160.5 422.05, 210 422.55Q235.3 417.85, 240 443.15Q291.73 444.88, 290 496.61Q282.75 439.36, 340 432.1Q361.64 423.74, 370 445.38Q393.21 438.59, 400 461.8Q429.59 461.39, 430 490.98Q460.48 471.46, 480 501.94Q502.8 494.74, 510 517.54Q517.85 475.38, 560 483.23Q566.54 439.77, 610 446.32z" fill="#356cb1"></path><path d="M630 560L0 560 L0 526.81Q29.03 505.84, 50 534.87Q93.4 528.27, 100 571.68Q118.27 539.95, 150 558.22Q156.78 535, 180 541.79Q186.13 497.92, 230 504.05Q289.51 513.56, 280 573.07Q264.79 507.86, 330 492.65Q383.12 515.77, 360 568.89Q394.35 553.24, 410 587.59Q419.85 547.44, 460 557.29Q448.25 515.54, 490 503.8Q545.26 529.06, 520 584.32Q489.73 524.05, 550 493.77Q617.06 510.83, 600 577.88Q597.47 545.35, 630 542.81z" fill="white"></path></g><defs><mask id="SvgjsMask1011"><rect width="600" height="560" fill="#ffffff"></rect></mask></defs></svg>